<svg xmlns="http://www.w3.org/2000/svg" xmlns:xlink="http://www.w3.org/1999/xlink">
    <symbol id="twitter" viewBox="0 0 26 21" >
        <g clip-path="url(#clip0_2_71)">
        <path d="M25.4688 2.39942C24.5192 2.81199 23.5146 3.0838 22.4866 3.20626C23.567 2.57365 24.3794 1.56863 24.7716 0.379696C23.7502 0.976961 22.6346 1.39603 21.4725 1.61895C20.9832 1.10613 20.3947 0.698161 19.7428 0.419851C19.0909 0.14154 18.3892 -0.00130113 17.6804 8.93028e-06C14.8106 8.93028e-06 12.4882 2.28868 12.4882 5.10997C12.4861 5.5024 12.5311 5.89366 12.6221 6.2754C10.5643 6.17893 8.5492 5.65397 6.70585 4.73411C4.8625 3.81425 3.23145 2.51974 1.91705 0.933407C1.45593 1.71077 1.21206 2.59773 1.21094 3.50157C1.21094 5.27344 2.13537 6.83966 3.53125 7.75723C2.70423 7.73761 1.89416 7.51872 1.1698 7.11915V7.18243C1.1698 9.66094 2.96277 11.7229 5.33582 12.1922C4.88957 12.3112 4.42972 12.3714 3.96789 12.3715C3.64019 12.3721 3.31323 12.3403 2.99178 12.2766C3.65148 14.3068 5.57154 15.7834 7.84598 15.8256C5.99784 17.2499 3.7288 18.0197 1.39551 18.0141C0.981341 18.0135 0.56756 17.9888 0.15625 17.9402C2.52992 19.4559 5.28912 20.2577 8.10543 20.25C17.6693 20.25 22.8943 12.4611 22.8943 5.70587C22.8943 5.48438 22.8885 5.2629 22.8779 5.04669C23.892 4.32531 24.7694 3.42886 25.4688 2.39942Z" />
        </g>
        <defs>
        <clipPath id="clip0_2_71">
        <rect width="26" height="21" />
        </clipPath>
        </defs>
    </symbol>

    <symbol id="instagram" viewBox="0 0 24 23">
        <path d="M16.7342 1.89566C18.0385 1.89941 19.2882 2.4 20.2104 3.2881C21.1327 4.17619 21.6525 5.37963 21.6564 6.63559V16.1144C21.6525 17.3704 21.1327 18.5738 20.2104 19.4619C19.2882 20.35 18.0385 20.8506 16.7342 20.8543H6.8908C5.58654 20.8506 4.33682 20.35 3.41456 19.4619C2.49231 18.5738 1.97247 17.3704 1.96857 16.1144V6.63559C1.97247 5.37963 2.49231 4.17619 3.41456 3.2881C4.33682 2.4 5.58654 1.89941 6.8908 1.89566H16.7342ZM16.7342 0H6.8908C3.10078 0 0 2.98594 0 6.63559V16.1144C0 19.7641 3.10078 22.75 6.8908 22.75H16.7342C20.5242 22.75 23.625 19.7641 23.625 16.1144V6.63559C23.625 2.98594 20.5242 0 16.7342 0Z"/>
        <path d="M18.2108 6.63574C17.9187 6.63574 17.6332 6.55235 17.3904 6.39611C17.1476 6.23988 16.9584 6.01781 16.8466 5.758C16.7348 5.49818 16.7056 5.21229 16.7626 4.93647C16.8195 4.66066 16.9602 4.4073 17.1667 4.20845C17.3732 4.0096 17.6363 3.87418 17.9227 3.81931C18.2091 3.76445 18.506 3.79261 18.7758 3.90023C19.0456 4.00784 19.2762 4.19009 19.4385 4.42392C19.6007 4.65774 19.6873 4.93265 19.6873 5.21387C19.6877 5.4007 19.6498 5.58578 19.5758 5.75847C19.5017 5.93116 19.393 6.08807 19.2558 6.22018C19.1186 6.35229 18.9556 6.45701 18.7763 6.52833C18.597 6.59964 18.4048 6.63614 18.2108 6.63574ZM11.8125 7.58332C12.5913 7.58332 13.3526 7.80571 14.0002 8.22236C14.6477 8.63901 15.1524 9.23122 15.4504 9.92408C15.7485 10.617 15.8264 11.3794 15.6745 12.1149C15.5226 12.8505 15.1476 13.5261 14.5969 14.0564C14.0462 14.5867 13.3445 14.9478 12.5807 15.0941C11.8169 15.2404 11.0251 15.1654 10.3056 14.8784C9.5861 14.5914 8.97112 14.1054 8.53844 13.4818C8.10577 12.8582 7.87483 12.1251 7.87483 11.3752C7.87594 10.3698 8.29116 9.40599 9.02938 8.69511C9.76759 7.98424 10.7685 7.5844 11.8125 7.58332ZM11.8125 5.68766C10.6444 5.68766 9.50244 6.02122 8.53117 6.64617C7.55989 7.27112 6.80287 8.15939 6.35584 9.19864C5.90881 10.2379 5.79185 11.3815 6.01974 12.4847C6.24763 13.588 6.81015 14.6014 7.63615 15.3968C8.46216 16.1922 9.51455 16.7339 10.6602 16.9534C11.8059 17.1728 12.9935 17.0602 14.0727 16.6297C15.1519 16.1992 16.0744 15.4703 16.7234 14.535C17.3724 13.5997 17.7187 12.5 17.7187 11.3752C17.7187 9.86674 17.0965 8.4201 15.9888 7.35349C14.8812 6.28687 13.3789 5.68766 11.8125 5.68766Z"/>
    </symbol>
    
    <symbol id="pinterest" viewBox="0 0 25 24">
        <path d="M12.3152 0C5.68691 0 0.3125 5.37201 0.3125 11.9973C0.3125 16.9087 3.2703 21.1292 7.49803 22.9877C7.46588 22.1522 7.49267 21.1453 7.70701 20.2348C7.93742 19.26 9.25021 13.6952 9.25021 13.6952C9.25021 13.6952 8.86441 12.9293 8.86441 11.7992C8.86441 10.021 9.89321 8.6927 11.1792 8.6927C12.2723 8.6927 12.7974 9.51216 12.7974 10.4923C12.7974 11.5903 12.0955 13.2292 11.7365 14.7503C11.4364 16.025 12.3741 17.0587 13.6333 17.0587C15.9053 17.0587 17.4378 14.1397 17.4378 10.6798C17.4378 8.04999 15.6641 6.08436 12.4438 6.08436C8.80547 6.08436 6.53353 8.79982 6.53353 11.8313C6.53353 12.8757 6.84431 13.6148 7.32657 14.1825C7.54626 14.445 7.57841 14.5521 7.49803 14.852C7.43909 15.0716 7.31049 15.6019 7.25155 15.8161C7.17117 16.1214 6.92469 16.2285 6.65141 16.116C4.97426 15.4305 4.19194 13.5988 4.19194 11.5314C4.19194 8.12497 7.06936 4.03838 12.7706 4.03838C17.352 4.03838 20.3688 7.35371 20.3688 10.9101C20.3688 15.6179 17.7485 19.1314 13.8905 19.1314C12.5938 19.1314 11.3775 18.4298 10.9595 17.6371C10.9595 17.6371 10.2629 20.4008 10.1129 20.9364C9.86106 21.863 9.36273 22.7842 8.90728 23.5073C10.0121 23.833 11.1579 23.999 12.3098 24C18.9381 24 24.3125 18.628 24.3125 12.0027C24.3125 5.37737 18.9434 0 12.3152 0Z"/>
    </symbol>

    <symbol id="facebook" viewBox="0 0 24 23">
        <path fill-rule="evenodd" clip-rule="evenodd" d="M23.625 11.375C23.625 5.09336 18.3357 0 11.8125 0C5.28926 0 0 5.09336 0 11.375C0 17.0523 4.31895 21.7582 9.9668 22.6124V14.6641H6.96674V11.375H9.9668V8.86895C9.9668 6.01859 11.7308 4.44285 14.4287 4.44285C15.7212 4.44285 17.0733 4.66527 17.0733 4.66527V7.46484H15.583C14.1165 7.46484 13.6577 8.34133 13.6577 9.24219V11.375H16.9335L16.4104 14.6641H13.6582V22.6134C19.3061 21.7598 23.625 17.0539 23.625 11.375Z"/>
    </symbol>

    <symbol id="location" viewBox="0 0 35 35">
        <path d="M17.5,34.32a3.29,3.29,0,0,1-2.35-1l-7.95-8a14.56,14.56,0,0,1-3.78-6.32,14.81,14.81,0,0,1-.5-3.81A14.58,14.58,0,1,1,31.6,19a14.5,14.5,0,0,1-3.82,6.44l-1.42,1.42h0l-6.52,6.52A3.28,3.28,0,0,1,17.5,34.32Zm0-31.14a11.91,11.91,0,0,0-8,3.09,12.1,12.1,0,0,0-4,9,11.9,11.9,0,0,0,.42,3.15A12,12,0,0,0,9,23.63l7.94,8a.83.83,0,0,0,1.15,0L26,23.65a12,12,0,0,0,3.19-5.32A12.09,12.09,0,0,0,18.84,3.25,12.39,12.39,0,0,0,17.48,3.18Zm8,22.76h0Z"/><path d="M17.5,20.18a5.25,5.25,0,1,1,5.25-5.25A5.26,5.26,0,0,1,17.5,20.18Zm0-8a2.75,2.75,0,1,0,2.75,2.75A2.75,2.75,0,0,0,17.5,12.18Z"/>
    </symbol>

    <symbol id="time" viewBox="0 0 26.001 26.001" >
            <g>
                <path  d="M11.002,12.998C11,14.102,11.894,14.999,12.998,15c1.104,0,2-0.895,2.002-1.997
                    c0.002-1.106-0.893-2.001-1.996-2.001C11.898,11,11.002,11.892,11.002,12.998z"/>
            </g>
            <g>
                <path  d="M13.573,13.539c0,0,0.001-0.002,0.001-0.004c0.39-0.39,1.101-1.715,0.72-2.053
                    c0,0-10.61-8.467-10.929-8.148s8.116,10.96,8.116,10.96C11.822,14.673,13.184,13.927,13.573,13.539z"/>
            </g>
            <circle cx="13" cy="2.001" r="2.001"/>
            <path  d="M17.288,1.798c-0.688,1.154,0.396,1.861,0.723,2.04c3.244,1.776,5.453,5.21,5.453,9.163
                c0,5.77-4.693,10.463-10.463,10.463S2.536,18.771,2.536,13.001c0-1.326,0.253-2.594,0.707-3.76C3.303,9.09,3.872,8.086,2.757,7.384
                c-0.764-0.48-1.512,0.062-1.662,0.404C0.392,9.384,0,11.146,0,13.001c0,7.18,5.82,13,13,13s13-5.82,13-13
                c0-5.113-2.959-9.528-7.253-11.646C18.657,1.31,17.768,0.991,17.288,1.798z"/>
   
    </symbol>
    
    <symbol id="list" viewBox="0 0 452.000000 452.000000">
        <g transform="translate(0.000000,452.000000) scale(0.100000,-0.100000)"
        >
            <path d="M840 4134 c-109 -29 -210 -118 -252 -223 l-23 -56 0 -1595 0 -1595
            23 -56 c27 -68 84 -135 149 -177 100 -65 43 -62 1393 -62 l1225 0 -195 195
            -195 195 -1007 0 -1008 0 0 1500 0 1500 1310 0 1310 0 0 -818 0 -817 188 -188
            c103 -103 191 -187 195 -187 4 0 6 474 5 1053 l-3 1052 -23 56 c-43 107 -143
            194 -257 224 -87 22 -2750 22 -2835 -1z"/>
            <path d="M1310 3200 l0 -190 195 0 195 0 0 190 0 190 -195 0 -195 0 0 -190z"/>
            <path d="M2070 3200 l0 -190 570 0 570 0 0 190 0 190 -570 0 -570 0 0 -190z"/>
            <path d="M1310 2450 l0 -190 195 0 195 0 0 190 0 190 -195 0 -195 0 0 -190z"/>
            <path d="M2070 2450 l0 -190 570 0 570 0 0 190 0 190 -570 0 -570 0 0 -190z"/>
            <path d="M1310 1695 l0 -195 195 0 195 0 0 195 0 195 -195 0 -195 0 0 -195z"/>
            <path d="M2070 1695 l0 -195 190 0 190 0 0 195 0 195 -190 0 -190 0 0 -195z"/>
            <path d="M2820 1658 l0 -233 404 -410 404 -410 236 234 235 235 -402 407 -402
            408 -237 0 -238 1 0 -232z"/>
            <path d="M4020 685 l-235 -236 130 -128 c194 -191 191 -191 433 52 l172 173 0
            54 0 54 -132 133 -133 133 -235 -235z"/>
        </g>
    </symbol>

    <symbol id="signature" viewBox="0 0 200 108">
        <path d="M57.5 53.16C57.98 53.08 58.34 53.24 58.58 53.64C58.86 54 58.92 54.4 58.76 54.84C58.64 55.24 58.34 55.48 57.86 55.56C56.62 55.72 55.24 55.94 53.72 56.22C51.64 63.34 48.38 69.9 43.94 75.9C39.5 81.9 34.14 86.9 27.86 90.9C26.58 91.74 25.56 92.38 24.8 92.82C24.04 93.3 22.88 93.9601 21.32 94.8C19.8 95.68 18.44 96.34 17.24 96.78C16.04 97.22 14.72 97.64 13.28 98.04C11.88 98.48 10.54 98.66 9.26003 98.58C7.98003 98.54 6.82002 98.26 5.78002 97.74C4.22002 96.98 3.16002 95.92 2.60002 94.56C2.04002 93.24 1.96002 91.82 2.36002 90.3C2.72002 88.7801 3.24002 87.34 3.92002 85.98C4.56002 84.62 5.34002 83.36 6.26002 82.2C11.74 75.04 18.44 69.0601 26.36 64.26C34.28 59.42 42.76 56.06 51.8 54.18C52.72 50.74 53.36 47.3 53.72 43.86C54.08 40.38 54.1 36.84 53.78 33.24C53.5 29.64 52.86 26.26 51.86 23.1C50.86 19.94 49.34 16.98 47.3 14.22C45.3 11.46 42.88 9.18005 40.04 7.38005C37.88 6.02005 35.54 5.00005 33.02 4.32005C30.54 3.60005 28.04 3.24005 25.52 3.24005C23.04 3.24005 20.56 3.68005 18.08 4.56005C15.64 5.40005 13.44 6.64005 11.48 8.28005C7.64002 11.52 5.12002 15.62 3.92002 20.58C2.72002 25.54 3.10002 30.3 5.06002 34.86C5.26002 35.34 5.22002 35.76 4.94002 36.12C4.66002 36.44 4.30002 36.6 3.86002 36.6C3.42002 36.56 3.10002 36.32 2.90002 35.88C1.66002 33.04 0.980024 30.12 0.860024 27.12C0.740024 24.12 1.10002 21.32 1.94002 18.72C2.78002 16.08 4.06002 13.6 5.78002 11.28C7.50002 8.92004 9.48003 6.94004 11.72 5.34005C14 3.74005 16.58 2.54005 19.46 1.74005C22.34 0.900046 25.3 0.620045 28.34 0.900043C32.22 1.26005 35.74 2.28005 38.9 3.96005C42.1 5.64005 44.76 7.76005 46.88 10.32C49 12.84 50.78 15.74 52.22 19.02C53.7 22.3 54.74 25.7 55.34 29.22C55.98 32.7 56.28 36.26 56.24 39.9C56.16 44.46 55.56 49.04 54.44 53.64C55.64 53.44 56.66 53.28 57.5 53.16ZM48.02 64.68C49.18 62.28 50.2 59.66 51.08 56.82C42.28 58.78 34.02 62.14 26.3 66.9C18.62 71.62 12.4 77.44 7.64002 84.36C5.60002 87.24 4.58002 89.42 4.58002 90.9C4.58002 91.98 4.76002 92.88 5.12002 93.6C5.48002 94.36 5.90002 94.9 6.38002 95.22C6.86002 95.58 7.48002 95.8 8.24002 95.88C9.04002 95.96 9.76002 95.96 10.4 95.88C11.04 95.8 11.82 95.62 12.74 95.34C13.66 95.1 14.34 94.88 14.78 94.68C15.22 94.52 15.8 94.3 16.52 94.02C16.64 93.98 16.74 93.94 16.82 93.9C21.26 92.1 25.44 89.8 29.36 87C37.56 81.04 43.78 73.6 48.02 64.68ZM65.8808 55.2C67.7608 55.68 69.0808 56.84 69.8408 58.68C70.6008 60.48 70.6408 62.3 69.9608 64.14C69.3608 65.9 68.4608 67.52 67.2608 69C66.0608 70.48 64.7008 71.26 63.1808 71.34C61.6208 71.42 60.4808 70.8801 59.7608 69.72C59.0808 68.56 58.8808 67.22 59.1608 65.7C59.7208 62.58 61.3408 59.46 64.0208 56.34C64.1008 56.26 64.2008 56.18 64.3208 56.1C64.6008 55.34 65.1208 55.04 65.8808 55.2ZM61.9208 68.58C62.6808 69.26 63.8208 68.8 65.3408 67.2C67.1008 65.36 68.0408 63.44 68.1608 61.44C68.2808 59.72 67.5408 58.5 65.9408 57.78C65.6208 58.14 65.2808 58.58 64.9208 59.1C64.5608 59.58 64.1408 60.18 63.6608 60.9C63.1808 61.62 62.7608 62.34 62.4008 63.06C62.0408 63.78 61.7408 64.5 61.5008 65.22C61.2608 65.9 61.1608 66.54 61.2008 67.14C61.2808 67.74 61.5208 68.22 61.9208 68.58ZM90.3444 55.86C90.7444 55.58 91.1644 55.54 91.6044 55.74C92.0444 55.94 92.2844 56.24 92.3244 56.64C92.4044 57.04 92.2644 57.4 91.9044 57.72C88.9844 59.76 86.3244 61.74 83.9244 63.66C85.0044 64.34 85.8844 65.02 86.5644 65.7C87.2844 66.34 87.9044 67.08 88.4244 67.92C88.9844 68.76 89.1844 69.68 89.0244 70.68C88.8644 71.68 88.3644 72.68 87.5244 73.68C86.6844 74.68 85.5844 75.6001 84.2244 76.44C82.8644 77.32 81.4244 77.98 79.9044 78.42C78.4244 78.9 77.0044 78.88 75.6444 78.36C74.2844 77.84 73.3044 76.78 72.7044 75.18C71.7844 72.66 73.1244 69.76 76.7244 66.48C77.6044 65.72 78.6044 64.86 79.7244 63.9C79.6444 63.86 79.1244 63.58 78.1644 63.06C77.2044 62.54 76.5644 62.18 76.2444 61.98C75.9244 61.78 75.4044 61.44 74.6844 60.96C74.0044 60.48 73.4644 60.02 73.0644 59.58C72.6644 59.14 72.3044 58.66 71.9844 58.14C70.7444 55.98 71.4244 53.56 74.0244 50.88C76.2644 48.56 78.8444 47.06 81.7644 46.38C84.9644 45.62 86.9844 46.32 87.8244 48.48C87.9444 48.84 88.0444 49.24 88.1244 49.68C88.1644 50.16 88.0044 50.54 87.6444 50.82C87.2844 51.06 86.8844 51.12 86.4444 51C86.0044 50.84 85.7644 50.52 85.7244 50.04C85.4044 47.84 83.3844 47.86 79.6644 50.1C78.0244 51.06 76.7844 51.96 75.9444 52.8C75.2244 53.52 74.7044 54.14 74.3844 54.66C74.1044 55.18 74.0244 55.76 74.1444 56.4C74.3044 57 74.7444 57.64 75.4644 58.32C75.8244 58.64 76.2444 58.98 76.7244 59.34C77.2044 59.66 77.6044 59.92 77.9244 60.12C78.2844 60.32 78.7844 60.62 79.4244 61.02C80.1044 61.38 80.5444 61.62 80.7444 61.74C80.8644 61.78 81.0244 61.88 81.2244 62.04C81.4644 62.16 81.6444 62.24 81.7644 62.28C84.4044 60.16 87.2644 58.02 90.3444 55.86ZM84.9444 72.84C85.4644 72.28 85.8444 71.74 86.0844 71.22C86.3244 70.7001 86.4044 70.22 86.3244 69.78C86.2444 69.3 86.0844 68.86 85.8444 68.46C85.6444 68.06 85.3044 67.66 84.8244 67.26C84.3844 66.86 83.9444 66.52 83.5044 66.24C83.0644 65.92 82.5444 65.58 81.9444 65.22C80.8644 66.14 79.8444 67 78.8844 67.8C78.7244 67.9601 78.4444 68.2 78.0444 68.52C77.6844 68.84 77.3844 69.1001 77.1444 69.3C76.9044 69.5 76.6444 69.78 76.3644 70.14C76.1244 70.46 75.9244 70.78 75.7644 71.1C74.8844 73.06 74.9644 74.4601 76.0044 75.3C77.0844 76.14 78.5244 76.32 80.3244 75.84C81.8044 75.48 83.3444 74.48 84.9444 72.84ZM114.273 55.56C114.633 55.2 115.013 55.12 115.413 55.32C115.813 55.48 116.053 55.78 116.133 56.22C116.253 56.62 116.153 57.02 115.833 57.42C107.593 65.86 100.473 69.36 94.4727 67.92C92.3527 67.44 90.7527 66.5201 89.6727 65.16C88.5927 63.76 88.1727 62.22 88.4127 60.54C88.6127 58.82 89.3927 57.18 90.7527 55.62C91.8327 54.46 93.2327 53.52 94.9527 52.8C97.5127 51.76 98.7727 52.4 98.7327 54.72C98.7327 54.76 98.7327 54.8 98.7327 54.84C98.6927 56.4 97.7527 57.88 95.9127 59.28C94.0727 60.68 92.4127 61.14 90.9327 60.66C90.7727 62.46 91.5327 63.8 93.2127 64.68C94.8927 65.56 96.7327 65.82 98.7327 65.46C101.573 64.94 104.213 63.84 106.653 62.16C109.133 60.44 111.673 58.24 114.273 55.56ZM95.2527 55.2C94.6927 55.24 94.0727 55.58 93.3927 56.22C92.7527 56.86 92.1927 57.56 91.7127 58.32C92.5527 58.72 93.5727 58.24 94.7727 56.88C95.5727 55.96 95.7927 55.4 95.4327 55.2C95.3927 55.2 95.3327 55.2 95.2527 55.2ZM127.665 58.44C128.145 58.36 128.505 58.5 128.745 58.86C129.025 59.22 129.085 59.62 128.925 60.06C128.805 60.5 128.505 60.76 128.025 60.84C123.905 61.48 119.905 62.76 116.025 64.68C115.905 69.48 115.865 74.36 115.905 79.32C116.585 79.88 117.065 80.3 117.345 80.58C120.705 83.7001 122.865 88.8 123.825 95.88C124.185 98.56 124.085 101.22 123.525 103.86C122.685 107.98 120.885 108.9 118.125 106.62C117.325 105.94 116.625 105 116.025 103.8C115.465 102.64 115.025 101.48 114.705 100.32C114.425 99.16 114.185 97.74 113.985 96.06C113.825 94.38 113.725 92.98 113.685 91.86C113.645 90.78 113.605 89.4 113.565 87.72C113.525 86.08 113.505 85 113.505 84.48C113.465 83.6001 113.425 82.4201 113.385 80.94C109.305 77.86 104.505 76.58 98.9853 77.1C98.3853 77.14 97.9853 76.88 97.7853 76.32C97.5453 75.8 97.6453 75.34 98.0853 74.94C103.565 69.7401 108.745 65.82 113.625 63.18C113.865 58.1 114.225 53 114.705 47.88C114.745 47.36 114.805 46.42 114.885 45.06C115.005 43.7 115.105 42.46 115.185 41.34C115.265 40.18 115.405 38.82 115.605 37.26C115.805 35.66 116.045 34.24 116.325 33C116.605 31.76 117.005 30.52 117.525 29.28C118.045 28 118.625 26.98 119.265 26.22C119.945 25.46 120.785 24.9 121.785 24.54C122.785 24.14 123.885 24.06 125.085 24.3C125.565 24.42 125.885 24.7 126.045 25.14C126.205 25.58 126.165 25.98 125.925 26.34C125.685 26.7 125.325 26.82 124.845 26.7C123.885 26.5 122.985 26.82 122.145 27.66C121.345 28.5 120.645 29.76 120.045 31.44C119.485 33.12 118.965 35.06 118.485 37.26C118.045 39.46 117.665 41.98 117.345 44.82C117.025 47.62 116.765 50.4 116.565 53.16C116.405 55.92 116.265 58.86 116.145 61.98C119.865 60.22 123.705 59.04 127.665 58.44ZM121.725 101.76C122.045 98.2001 121.705 94.8 120.705 91.56C119.705 88.36 118.125 85.6 115.965 83.28C116.045 86.24 116.125 88.3 116.205 89.46C116.565 94.14 117.065 97.72 117.705 100.2C118.225 102.16 118.925 103.54 119.805 104.34C120.725 105.18 121.325 104.64 121.605 102.72L121.725 101.76ZM113.325 77.64C113.285 73.68 113.345 69.82 113.505 66.06C109.825 68.14 105.985 71 101.985 74.64C106.225 74.76 110.005 75.76 113.325 77.64ZM128.451 54.36C128.651 53.92 128.971 53.68 129.411 53.64C129.851 53.6 130.211 53.74 130.491 54.06C130.811 54.38 130.891 54.78 130.731 55.26C128.691 60.38 127.711 65.58 127.791 70.86C127.791 71.54 127.451 71.88 126.771 71.88C126.051 71.88 125.611 71.56 125.451 70.92C125.411 70.8 125.391 70.68 125.391 70.56C125.311 65.16 126.331 59.76 128.451 54.36ZM132.471 47.46C132.751 48.14 132.551 48.68 131.871 49.08L127.611 51.6C127.331 51.76 127.031 51.78 126.711 51.66C126.391 51.5 126.171 51.28 126.051 51C125.771 50.36 125.971 49.82 126.651 49.38L130.911 46.86C131.191 46.7 131.491 46.7 131.811 46.86C132.131 46.98 132.351 47.18 132.471 47.46ZM174.001 55.74C174.321 55.38 174.701 55.24 175.141 55.32C175.621 55.4 175.941 55.64 176.101 56.04C176.301 56.4 176.261 56.78 175.981 57.18C174.981 58.42 173.801 59.7 172.441 61.02C171.081 62.34 169.481 63.66 167.641 64.98C165.801 66.26 164.001 67.28 162.241 68.04C160.481 68.76 158.681 69.04 156.841 68.88C155.001 68.68 153.421 67.8801 152.101 66.48C151.381 65.68 150.401 64.5 149.161 62.94C147.961 61.38 147.081 60.28 146.521 59.64C146.161 59.28 145.821 59 145.501 58.8C145.181 58.56 144.901 58.4 144.661 58.32C144.421 58.24 144.161 58.26 143.881 58.38C143.601 58.5 143.361 58.62 143.161 58.74C143.001 58.82 142.781 59.02 142.501 59.34C142.221 59.66 142.021 59.92 141.901 60.12C141.781 60.32 141.561 60.66 141.241 61.14C140.921 61.58 140.701 61.88 140.581 62.04C140.381 62.36 139.841 63.38 138.961 65.1C138.121 66.78 137.241 68.22 136.321 69.42C135.441 70.58 134.601 71.22 133.801 71.34C133.321 71.42 132.941 71.28 132.661 70.92C132.381 70.52 132.181 70.1001 132.061 69.66C131.901 69.18 131.841 68.62 131.881 67.98C131.921 67.3 131.961 66.78 132.001 66.42C132.041 66.06 132.141 65.48 132.301 64.68C132.461 63.88 132.561 63.42 132.601 
        63.3C132.841 61.78 133.301 59.62 133.981 56.82C134.661 53.98 135.061 52.28 135.181 51.72C135.301 51.28 135.581 50.98 136.021 50.82C136.461 50.66 136.861 50.7 137.221 50.94C137.581 51.18 137.701 51.54 137.581 52.02C137.381 52.9 137.041 54.36 136.561 56.4C136.081 58.4 135.721 59.94 135.481 61.02C135.001 63.38 134.701 65.0201 134.581 65.94C134.581 66.0601 134.581 66.2401 134.581 66.48C134.901 65.8801 135.301 65.24 135.781 64.56C136.301 63.88 136.841 63.16 137.401 62.4C137.961 61.64 138.361 61.06 138.601 60.66C138.721 60.5 138.881 60.26 139.081 59.94C139.321 59.62 139.521 59.34 139.681 59.1C139.841 58.86 140.021 58.6 140.221 58.32C140.461 58 140.681 57.72 140.881 57.48C141.081 57.24 141.301 57 141.541 56.76C141.781 56.52 142.021 56.3 142.261 56.1C142.541 55.9 142.801 55.74 143.041 55.62C143.681 55.46 144.241 55.38 144.721 55.38C145.201 55.38 145.721 55.56 146.281 55.92C146.841 56.28 147.321 56.66 147.721 57.06C148.161 57.46 148.621 57.96 149.101 58.56C149.621 59.16 150.041 59.72 150.361 60.24C150.721 60.72 151.081 61.24 151.441 61.8C151.841 62.36 152.181 62.8 152.461 63.12C153.861 64.84 155.121 65.86 156.241 66.18C157.361 66.46 158.961 66.22 161.041 65.46C165.921 63.66 170.241 60.42 174.001 55.74ZM197.71 55.56C198.07 55.2 198.45 55.12 198.85 55.32C199.25 55.48 199.49 55.78 199.57 56.22C199.69 56.62 199.59 57.02 199.27 57.42C191.03 65.86 183.91 69.36 177.91 67.92C175.79 67.44 174.19 66.5201 173.11 65.16C172.03 63.76 171.61 62.22 171.85 60.54C172.05 58.82 172.83 57.18 174.19 55.62C175.27 54.46 176.67 53.52 178.39 52.8C180.95 51.76 182.21 52.4 182.17 54.72C182.17 54.76 182.17 54.8 182.17 54.84C182.13 56.4 181.19 57.88 179.35 59.28C177.51 60.68 175.85 61.14 174.37 60.66C174.21 62.46 174.97 63.8 176.65 64.68C178.33 65.56 180.17 65.82 182.17 65.46C185.01 64.94 187.65 63.84 190.09 62.16C192.57 60.44 195.11 58.24 197.71 55.56ZM178.69 55.2C178.13 55.24 177.51 55.58 176.83 56.22C176.19 56.86 175.63 57.56 175.15 58.32C175.99 58.72 177.01 58.24 178.21 56.88C179.01 55.96 179.23 55.4 178.87 55.2C178.83 55.2 178.77 55.2 178.69 55.2Z"/>
    </symbol>

    <symbol id="quotes" viewBox="0 0 15 12">
        <path d="M2.52115 10.5804C3.22245 10.2794 3.83461 9.82201 4.35762 9.20807C4.88063 8.59414 5.19562 7.96816 5.3026 7.33015C5.36203 6.99309 5.39175 6.70418 5.39175 6.46342C5.39175 6.18654 5.36203 5.95782 5.3026 5.77725C4.74393 6.36711 4.03668 6.66204 3.18085 6.66204C2.32502 6.66204 1.62966 6.40925 1.09476 5.90365C0.559866 5.39806 0.292419 4.69986 0.292419 3.80905C0.29242 2.96639 0.577696 2.28023 1.14825 1.75056C1.70692 1.22089 2.42011 0.956055 3.28783 0.956055C4.47648 0.956055 5.3442 1.38942 5.89098 2.25615C6.1406 2.62933 6.33673 3.08677 6.47937 3.62848C6.62201 4.18222 6.69332 4.74801 6.69332 5.32583C6.69332 6.58982 6.37239 7.74546 5.73051 8.79276C5.08864 9.84007 4.13177 10.6586 2.85991 11.2485L2.52115 10.5804ZM10.0454 10.5804C10.7467 10.2794 11.3588 9.82201 11.8818 9.20807C12.4048 8.59414 12.7198 7.96816 12.8268 7.33015C12.8862 6.99309 12.916 6.70418 12.916 6.46342C12.916 6.18654 12.8862 5.95782 12.8268 5.77725C12.2681 6.36711 11.5609 6.66204 10.7051 6.66204C9.8492 6.66204 9.15384 6.40925 8.61895 5.90365C8.08405 5.39806 7.8166 4.69986 7.8166 3.80905C7.8166 2.96639 8.10188 2.28023 8.67243 1.75056C9.2311 1.22089 9.9443 0.956055 10.812 0.956055C12.0007 0.956055 12.8684 1.38942 13.4152 2.25615C13.6648 2.62933 13.8609 3.08677 14.0036 3.62848C14.1462 4.18222 14.2175 4.74801 14.2175 5.32583C14.2175 6.58982 13.8966 7.74546 13.2547 8.79276C12.6128 9.84007 11.656 10.6586 10.3841 11.2485L10.0454 10.5804Z"/>
    </symbol>

    <symbol id="offer-cost" viewBox="0 0 151 95">
        <path d="M69.7048 1.90035C72.2258 -0.633449 78.1449 -0.633449 80.6658 1.90035C82.7787 4.02407 87.4599 4.44324 
        90.4482 2.77624C94.0132 0.787373 99.6926 1.82589 100.965 4.69932C102.032 7.10782 106.334 8.33125 109.955 7.25606C114.275 
        5.97324 119.255 7.96612 119.175 10.9465C119.11 13.4445 122.684 15.3732 126.644 14.9769C131.371 14.504 135.247 17.2899 
        133.823 20.1356C132.63 22.5208 135.186 24.9985 139.166 25.3132C143.914 25.6887 146.373 29.0417 143.719 31.5223C141.495 
        33.6015 142.828 36.4275 146.504 37.4277C150.89 38.621 151.732 42.2696 148.064 44.1841C144.989 45.7889 144.989 48.734 
        148.064 50.3388C151.732 52.2533 150.89 55.9019 146.504 57.0953C142.828 58.0955 141.495 60.9214 143.719 63.0006C146.373 
        65.4812 143.914 68.8342 139.166 69.2097C135.186 69.5245 132.63 72.0022 133.823 74.3874C135.247 77.2331 131.371 80.0192 
        126.644 79.5459C122.684 79.1495 119.11 81.0788 119.175 83.5763C119.255 86.5569 114.275 88.5495 109.955 87.2668C106.334 
        86.1914 102.032 87.4153 100.965 89.8238C99.6926 92.6974 94.0132 93.7359 90.4482 91.7463C87.4599 90.0793 82.7787 90.4991 
        80.6658 92.6228C78.1449 95.1565 72.2258 95.1565 69.7048 92.6228C67.5919 90.4991 62.9107 90.0793 59.9225 91.7463C56.3574 
        93.7359 50.6781 92.6974 49.4056 89.8238C48.339 87.4153 44.037 86.1914 40.4158 87.2668C36.0954 88.5495 31.1159 86.5569 
        31.1949 83.5763C31.2611 81.0788 27.6869 79.1495 23.7259 79.5459C19.0001 80.0192 15.1239 77.2331 16.548 74.3874C17.7416 
        72.0022 15.1847 69.5245 11.2049 69.2097C6.45661 68.8342 3.99771 65.4812 6.65156 63.0006C8.87581 60.9214 7.54344 58.0955 
        3.86714 57.0953C-0.518851 55.9019 -1.36122 52.2533 2.30726 50.3388C5.38212 48.734 5.38212 45.7889 2.30726 44.1842C-1.36122 
        42.2696 -0.518851 38.621 3.86714 37.4277C7.54344 36.4275 8.87581 33.6015 6.65156 31.5223C3.99771 29.0417 6.45661 25.6887 
        11.2049 25.3132C15.1847 24.9985 17.7416 22.5208 16.548 20.1356C15.1239 17.2899 19.0001 14.504 23.7259 14.9769C27.6869 
        15.3732 31.2611 13.4445 31.1949 10.9465C31.1159 7.96612 36.0954 5.97324 40.4158 7.25606C44.037 8.33125 48.339 7.10782 
        49.4056 4.69932C50.6781 1.82588 56.3574 0.787373 59.9225 2.77624C62.9107 4.44324 67.5919 4.02407 69.7048 1.90035Z"/>
    </symbol>

   
</svg>




